:SAMPLES-PER-SECOND 30
:FULLY-SPECIFIED
:DEGREES
249
root  46.9868 33.8822 37.7626 12.846 -51.4304 -4.58646
RightUpLeg  -28.6712 -29.6558 0.978339
RightLeg  24.0365 -4.64684 -1.72439
RightFoot  4.96185 0.0352623 -0.436233
RightToes  -31.4175 -0.153803 -0.261696
Spine  4.81822 -0.41422 -1.75813
Spine1  9.24885 -0.884748 -3.27117
HEad  33.9419 -20.4562 19.4505
LeftShoulder1  0 -2.42657e-020 -4.95415e-022
LeftArm  -51.0077 20.8999 -83.6956
LeftForeArm  67.5733 -79.8053 -81.554
LeftHand  0.761334 -4.82184 -18.3308
RightShoulder  0 2.42657e-020 1.07489e-018
RightArm  -21.5852 -19.5258 83.2053
RightForeArm  42.6398 42.8045 9.39648
RightHand  -1.10042 22.6351 -5.12566
LeftUpLeg  -2.17894 11.8247 9.11204
LeftLeg  5.00885 -2.80461 -0.0655213
LeftFoot  2.99426 0.00505314 -0.217392
LeftToes  -31.8349 1.18758e-006 1.19596e-007
250
root  46.4733 33.7463 37.9628 13.1534 -53.7606 -4.54254
RightUpLeg  -28.7346 -27.5065 -0.512704
RightLeg  17.83 -7.11574 -1.78732
RightFoot  2.90073 0.018682 -0.360217
RightToes  -28.136 -0.131298 -0.238804
Spine  4.67249 -0.518618 -1.51325
Spine1  8.96714 -1.14398 -2.77148
HEad  32.9267 -21.0279 19.4968
LeftShoulder1  0 -2.42657e-020 -4.95415e-022
LeftArm  -53.8899 19.3899 -79.8112
LeftForeArm  77.0216 -79.8878 -93.8999
LeftHand  0.960846 -4.87015 -22.7104
RightShoulder  0 2.42657e-020 1.07489e-018
RightArm  -24.5681 -21.131 82.7608
RightForeArm  42.3461 44.6165 10.0214
RightHand  -1.10354 22.81 -5.0979
LeftUpLeg  -0.830622 13.6023 9.18568
LeftLeg  4.85299 -2.26435 -0.0468394
LeftFoot  2.17157 0.00300295 -0.158453
LeftToes  -32.2394 1.18758e-006 1.19596e-007
251
root  45.8693 33.595 38.1213 12.849 -55.8845 -3.90344
RightUpLeg  -28.4161 -25.954 -1.91311
RightLeg  11.5929 -9.39101 -1.2953
RightFoot  2.51047 0.0169906 -0.39775
RightToes  -25.8356 -0.116321 -0.222007
Spine  4.59681 -0.496312 -1.32837
Spine1  8.82306 -1.13883 -2.38231
HEad  31.5625 -22.1023 19.7172
LeftShoulder1  0 -2.42657e-020 -4.95415e-022
LeftArm  -54.8239 16.4736 -76.2664
LeftForeArm  83.188 -79.6526 -102.941
LeftHand  0.975421 -4.53107 -24.6927
RightShoulder  0 2.42657e-020 1.07489e-018
RightArm  -28.9098 -22.251 83.2616
RightForeArm  43.0257 46.1569 10.5841
RightHand  -1.1952 22.8585 -5.53842
LeftUpLeg  0.709117 14.5453 9.02978
LeftLeg  4.5655 -1.09792 -0.0174597
LeftFoot  1.67083 0.00115088 -0.105584
LeftToes  -32.4905 1.18758e-006 1.19596e-007
252
root  45.1755 33.4281 38.2392 12.1925 -57.6531 -3.0101
RightUpLeg  -28.7716 -28.1683 -1.25258
RightLeg  6.46447 -10.2295 -0.490526
RightFoot  2.14868 0.0149294 -0.364868
RightToes  -26.8601 -0.122908 -0.229562
Spine  4.57617 -0.493285 -1.18423
Spine1  8.76959 -1.18016 -2.04983
HEad  30.5446 -23.1181 19.6904
LeftShoulder1  0 -2.42657e-020 -4.95415e-022
LeftArm  -55.8992 12.4136 -73.5587
LeftForeArm  87.7107 -79.316 -109.388
LeftHand  0.994217 -4.374 -26.0102
RightShoulder  0 2.42657e-020 1.07489e-018
RightArm  -33.385 -22.6617 84.2962
RightForeArm  43.8101 46.9371 10.881
RightHand  -1.4048 23.3454 -6.4239
LeftUpLeg  2.29557 14.3207 8.84101
LeftLeg  4.36871 0.860365 0.00981253
LeftFoot  1.37821 -0.000836046 -0.0536764
LeftToes  -33.0007 1.18758e-006 1.19596e-007
253
root  44.3451 33.2641 38.2787 11.3642 -59.2496 -2.43185
RightUpLeg  -29.96 -32.4302 1.4692
RightLeg  4.57935 -10.7868 -0.163929
RightFoot  1.16306 0.00583689 -0.197393
RightToes  -26.153 -0.118348 -0.22436
Spine  4.68449 -0.581821 -0.973198
Spine1  8.92198 -1.44078 -1.53675
HEad  29.7867 -23.6593 19.4538
LeftShoulder1  0 -2.42657e-020 -4.95415e-022
LeftArm  -56.9675 7.7141 -71.4606
LeftForeArm  94.5388 -78.9367 -114.385
LeftHand  1.11331 -4.79327 -26.5452
RightShoulder  0 2.42657e-020 1.07489e-018
RightArm  -35.1324 -22.4613 84.7204
RightForeArm  42.9789 47.131 10.9578
RightHand  -1.58739 23.0424 -7.40804
LeftUpLeg  4.30216 14.8712 9.39935
LeftLeg  4.41548 1.56329 0.0195094
LeftFoot  1.65569 -0.000643948 -0.0378213
LeftToes  -35.2757 1.18758e-006 1.19596e-007
254
root  43.4077 33.1172 38.1967 10.3172 -60.729 -1.7149
RightUpLeg  -31.0146 -34.4647 3.86294
RightLeg  6.22802 -12.742 -0.556652
RightFoot  0.578963 0.00244874 -0.106981
RightToes  -23.6527 -0.102743 -0.205523
Spine  4.84442 -0.761446 -0.814829
Spine1  9.14633 -1.89777 -1.09767
HEad  29.2889 -24.0801 19.6929
LeftShoulder1  0 -2.42657e-020 -4.95415e-022
LeftArm  -57.0272 2.73414 -69.4783
LeftForeArm  99.8588 -78.6751 -117.156
LeftHand  1.17292 -4.95209 -27.0418
RightShoulder  0 2.42657e-020 1.07489e-018
RightArm  -35.5282 -21.3734 85.1619
RightForeArm  42.6662 46.3862 10.6713
RightHand  -1.71857 22.7772 -8.14908
LeftUpLeg  6.33801 15.202 10.2538
LeftLeg  4.64745 1.99076 0.0330145
LeftFoot  2.55779 -0.00161236 -0.00525359
LeftToes  -38.1602 1.18758e-006 1.19596e-007
255
root  42.3163 33.0274 37.9786 11.3679 -62.4893 -2.88252
RightUpLeg  -30.3074 -31.6606 5.24045
RightLeg  7.40341 -12.6273 -0.809347
RightFoot  -0.16815 -0.000465752 0.0603947
RightToes  -13.7051 -0.0492154 -0.124385
Spine  4.81152 -0.825772 -0.343228
Spine1  8.99935 -2.08235 -0.189888
HEad  29.1769 -23.825 19.0695
LeftShoulder1  0 -2.42657e-020 -4.95415e-022
LeftArm  -55.6028 -1.08235 -68.0832
LeftForeArm  107.765 -78.1017 -122.175
LeftHand  1.23674 -5.18178 -27.2358
RightShoulder  0 2.42657e-020 1.07489e-018
RightArm  -34.5767 -19.8717 85.1627
RightForeArm  42.5452 44.753 10.0698
RightHand  -1.691 22.7257 -8.03231
LeftUpLeg  8.05274 16.5931 12.4715
LeftLeg  5.2181 1.31753 0.0347332
LeftFoot  4.08475 0.000489051 -0.0208477
LeftToes  -42.622 1.18758e-006 1.19596e-007
256
root  41.1917 33.0114 37.7354 11.8559 -64.0469 -3.12016
RightUpLeg  -27.8394 -23.3942 2.82501
RightLeg  6.00321 -10.8812 -0.434159
RightFoot  8.06054 0.136407 -1.55814
RightToes  -22.0224 -0.0930173 -0.192881
Spine  4.69255 -1.14911 0.0348558
Spine1  8.64663 -2.81228 0.5859
HEad  29.9575 -23.0523 18.5362
LeftShoulder1  0 -2.42657e-020 -4.95415e-022
LeftArm  -53.118 -3.4712 -67.4269
LeftForeArm  116.669 -77.5196 -126.239
LeftHand  1.43757 -5.97803 -27.4213
RightShoulder  0 2.42657e-020 1.07489e-018
RightArm  -32.6242 -17.8868 85.1964
RightForeArm  42.3211 42.2968 9.22879
RightHand  -1.62843 22.963 -7.63681
LeftUpLeg  8.90251 17.3108 13.9233
LeftLeg  6.6304 1.58039 0.0806301
LeftFoot  6.4525 -0.00192586 0.0341567
LeftToes  -46.6977 1.18758e-006 1.19596e-007
257
root  40.0299 33.0821 37.4208 12.7359 -64.8195 -3.30812
RightUpLeg  -27.2923 -16.8111 1.37158
RightLeg  7.33912 -9.79708 -0.619256
RightFoot  13.0345 0.303507 -2.27859
RightToes  -28.5153 -0.133832 -0.241516
Spine  4.62855 -1.77051 0.544732
Spine1  8.39799 -4.1304 1.5744
HEad  29.8657 -21.9304 18.0367
LeftShoulder1  0 -2.42657e-020 -4.95415e-022
LeftArm  -49.2894 -4.98242 -68.2092
LeftForeArm  124.484 -76.9275 -129.697
LeftHand  1.52418 -6.46929 -26.8866
RightShoulder  0 2.42657e-020 1.07489e-018
RightArm  -30.3411 -15.0655 85.3742
RightForeArm  42.0687 39.1505 8.24572
RightHand  -1.56814 22.9285 -7.35309
LeftUpLeg  8.58092 18.9179 15.6583
LeftLeg  8.77036 0.699526 0.0612774
LeftFoot  9.67599 0.00559387 -0.0660991
LeftToes  -51.8657 1.18758e-006 1.19596e-007
258
root  38.8193 33.1752 37.0789 13.6496 -65.3131 -3.49561
RightUpLeg  -27.2328 -12.7935 1.0609
RightLeg  9.5005 -13.1278 -1.32024
RightFoot  14.0784 0.45871 -3.33589
RightToes  -31.1074 -0.151621 -0.259589
Spine  4.57214 -2.51089 1.08822
Spine1  8.08245 -5.71782 2.62978
HEad  30.0881 -20.7363 17.3477
LeftShoulder1  0 -2.42657e-020 -4.95415e-022
LeftArm  -43.224 -4.64696 -69.4563
LeftForeArm  132.876 -76.634 -131.201
LeftHand  1.6336 -7.51279 -24.8949
RightShoulder  0 2.42657e-020 1.07489e-018
RightArm  -29.4455 -12.1751 86.3102
RightForeArm  42.2047 35.2754 7.15242
RightHand  -1.46378 23.3521 -6.70637
LeftUpLeg  7.38622 20.2461 17.3472
LeftLeg  12.1496 0.18668 0.0263844
LeftFoot  13.1613 0.023955 -0.20766
LeftToes  -55.603 1.18758e-006 1.19596e-007
259
root  37.61 33.2725 36.7072 15.0779 -66.1477 -4.33409
RightUpLeg  -27.016 -12.0199 2.49699
RightLeg  10.5484 -12.3181 -1.4665
RightFoot  14.1723 0.441661 -3.17405
RightToes  -29.7232 -0.14202 -0.250038
Spine  4.74459 -3.0638 1.73332
Spine1  8.17707 -6.88807 3.65985
HEad  30.1114 -18.9593 16.5508
LeftShoulder1  0 -2.42657e-020 -4.95415e-022
LeftArm  -35.988 -4.24034 -71.5828
LeftForeArm  135.815 -77.6213 -125.488
LeftHand  1.72218 -9.00302 -22.003
RightShoulder  0 2.42657e-020 1.07489e-018
RightArm  -29.5499 -9.05271 87.6156
RightForeArm  42.838 31.9215 6.28977
RightHand  -1.39385 23.6256 -6.289
LeftUpLeg  5.19006 19.8684 18.5112
LeftLeg  17.257 2.03612 0.489522
LeftFoot  16.3501 -0.0370536 0.25792
LeftToes  -54.3722 1.18758e-006 1.19596e-007
260
root  36.4589 33.3531 36.4174 14.9453 -67.7578 -3.72244
RightUpLeg  -27.1034 -10.9959 3.26001
RightLeg  12.4792 -11.2875 -1.73065
RightFoot  11.9817 0.301875 -2.49829
RightToes  -24.0345 -0.105072 -0.208442
Spine  5.11857 -3.39922 2.0949
Spine1  8.67338 -7.59294 4.03436
HEad  30.0336 -17.0338 15.8919
LeftShoulder1  0 -2.42657e-020 -4.95415e-022
LeftArm  -27.9989 -3.82848 -74.0007
LeftForeArm  117.661 -79.7876 -98.1864
LeftHand  1.55183 -11.6464 -15.5076
RightShoulder  0 2.42657e-020 1.07489e-018
RightArm  -29.6666 -5.70882 89.0586
RightForeArm  42.9527 28.5509 5.48689
RightHand  -1.42989 23.2079 -6.58701
LeftUpLeg  2.2878 18.5623 17.8069
LeftLeg  23.8758 6.73211 2.46606
LeftFoot  17.4693 -0.270553 1.7608
LeftToes  -39.544 1.18758e-006 1.19596e-007
261
root  35.3495 33.4158 36.2423 13.243 -69.8096 -1.75323
RightUpLeg  -27.1091 -10.1806 3.26943
RightLeg  14.9141 -10.0731 -1.98597
RightFoot  9.41208 0.178456 -1.78987
RightToes  -20.7843 -0.0858737 -0.183098
Spine  5.61756 -3.53372 2.2595
Spine1  9.52181 -7.79676 3.8723
HEad  29.9746 -14.9532 14.7955
LeftShoulder1  0 -2.42657e-020 -4.95415e-022
LeftArm  -19.4963 -4.39325 -76.7308
LeftForeArm  78.3808 -75.9772 -45.3015
LeftHand  0.539445 -15.1113 -4.43722
RightShoulder  0 2.42657e-020 1.07489e-018
RightArm  -29.7887 -2.0597 90.2421
RightForeArm  43.4106 24.6297 4.61667
RightHand  -1.46169 22.6111 -6.93377
LeftUpLeg  -0.942911 18.1329 15.8158
LeftLeg  30.676 9.1867 4.64568
LeftFoot  15.9393 -0.340289 2.43026
LeftToes  -21.0529 1.18758e-006 1.19596e-007
262
root  34.3132 33.4359 36.1021 13.1003 -72.0865 -1.35909
RightUpLeg  -26.6152 -9.29238 3.71057
RightLeg  16.1069 -8.68264 -1.90255
RightFoot  7.56775 0.108668 -1.26529
RightToes  -19.9218 -0.0810234 -0.176194
Spine  5.96816 -3.43552 2.59486
Spine1  10.199 -7.44401 3.93254
HEad  30.5911 -12.9367 13.3981
LeftShoulder1  0 -2.42657e-020 -4.95415e-022
LeftArm  -12.4806 -7.43067 -80.7369
LeftForeArm  65.0617 -60.7978 -18.3963
LeftHand  -0.708387 -16.8335 4.41661
RightShoulder  0 2.42657e-020 1.07489e-018
RightArm  -31.1819 1.46036 90.8687
RightForeArm  44.7796 20.4658 3.75124
RightHand  -1.34198 22.6089 -6.33765
LeftUpLeg  -4.36881 17.992 13.8213
LeftLeg  35.9835 4.74079 2.98644
LeftFoot  9.77901 -0.0490681 0.573576
LeftToes  -22.3423 1.18758e-006 1.19596e-007
263
root  33.3534 33.401 36.0215 12.6579 -75.0965 -0.513901
RightUpLeg  -26.4646 -7.49258 3.73374
RightLeg  17.6053 -7.59946 -1.87631
RightFoot  5.35221 0.0591809 -0.888433
RightToes  -19.9644 -0.0802164 -0.176834
Spine  6.42001 -3.48781 2.86747
Spine1  10.7392 -7.97921 4.49541
HEad  32.079 -11.1547 12.004
LeftShoulder1  0 -2.42657e-020 -4.95415e-022
LeftArm  -8.37417 -13.4763 -85.4543
LeftForeArm  61.0686 -37.5143 -7.72726
LeftHand  -0.663538 -17.5828 3.92004
RightShoulder  0 2.42657e-020 1.07489e-018
RightArm  -35.2009 5.31669 91.435
RightForeArm  47.3387 16.3086 2.93279
RightHand  -1.0608 22.4348 -4.97652
LeftUpLeg  -8.92841 16.3424 10.2521
LeftLeg  41.2573 2.08917 1.60112
LeftFoot  4.25996 0.0100749 -0.270895
LeftToes  -21.6724 1.18758e-006 1.19596e-007
